# xmcd
#
# Track frame offsets: 
#        150
#        19982
#        35050
#        51247
#        66327
#        86210
#        100512
#        122097
#        138762
#        151957
#        169837
#        181960
#
# Disc length: 2618 seconds
#
# Revision: 4
# Processed by: cddbd v1.5.2PL0 Copyright (c) Steve Scherf et al.
# Submitted via: ExactAudioCopyFreeDBPlugin 1.0
#
DISCID=a10a380c
DTITLE=Shakira - Fijacion Oral Vol. 1
DYEAR=2005
DGENRE=Latin
TTITLE0=En Tus Pupilas
TTITLE1=La Pared
TTITLE2=La Tortura
TTITLE3=Obtener Un Si
TTITLE4=Dia Especial
TTITLE5=Escondite Ingles
TTITLE6=No
TTITLE7=Las De La Intuicion
TTITLE8=Dia De Enero
TTITLE9=Lo Imprescindible
TTITLE10=La Pared (Version Acustica)
TTITLE11=La Tortura (Shaketon Remix)
EXTD=
EXTT0=
EXTT1=
EXTT2=
EXTT3=
EXTT4=
EXTT5=
EXTT6=
EXTT7=
EXTT8=
EXTT9=
EXTT10=
EXTT11=
PLAYORDER=
